<svg xmlns="http://www.w3.org/2000/svg" viewBox="0 0 200 200" width="200" height="200">
  <defs>
    <!-- Gradients for realistic 3D isometric lighting -->
    <linearGradient id="topOrange" x1="0%" y1="100%" x2="100%" y2="0%">
      <stop offset="0%" stop-color="#FF6B00"/>
      <stop offset="100%" stop-color="#FF4500"/>
    </linearGradient>
    
    <linearGradient id="rightOrange" x1="0%" y1="0%" x2="100%" y2="100%">
      <stop offset="0%" stop-color="#FF5500"/>
      <stop offset="100%" stop-color="#CC3300"/>
    </linearGradient>

    <linearGradient id="leftWhite" x1="0%" y1="0%" x2="100%" y2="100%">
      <stop offset="0%" stop-color="#FFFFFF"/>
      <stop offset="100%" stop-color="#DCDCDC"/>
    </linearGradient>

    <!-- Glow effect -->
    <filter id="orangeGlow" x="-20%" y="-20%" width="140%" height="140%">
      <feGaussianBlur stdDeviation="4" result="blur" />
      <feComposite in="SourceGraphic" in2="blur" operator="over"/>
    </filter>
  </defs>

  <g transform="translate(0, 5)">
    <!-- TOP FACE (Orange isometric top) -->
    <polygon points="100,20 165,57.5 100,95 35,57.5" fill="url(#topOrange)" />

    <!-- RIGHT FACE (Orange isometric right side) -->
    <!-- Stylized 3D block cut out forming part of the cube -->
    <polygon points="100,95 165,57.5 165,132.5 100,170" fill="url(#rightOrange)" filter="url(#orangeGlow)"/>
    
    <!-- Top inner accent line for depth -->
    <polygon points="100,95 165,57.5 155,63.25 100,95" fill="#FF8833" opacity="0.6"/>

    <!-- LEFT FACE (White isometric left side forming .ꟻ) -->
    <!-- Outer white block structure -->
    <g fill="url(#leftWhite)">
      <!-- Reversed F (.ꟻ) isometric geometry on left face -->
      <!-- Left main vertical bar of ꟻ -->
      <polygon points="35,57.5 52,47.7 52,122.7 35,132.5" />
      
      <!-- Top horizontal bar of ꟻ -->
      <polygon points="52,47.7 100,75.4 100,90.4 52,62.7" />
      
      <!-- Middle horizontal bar of ꟻ -->
      <polygon points="52,77.7 85,96.7 85,108.7 52,89.7" />

      <!-- Isometric Dot '.' before ꟻ -->
      <polygon points="22,125 30,120.4 30,131.9 22,136.5" />
    </g>
    
    <!-- Subtle edge highlights -->
    <polyline points="100,20 165,57.5 165,132.5" fill="none" stroke="#FFAA66" stroke-width="1.5" opacity="0.7"/>
    <polyline points="35,57.5 100,95 100,170" fill="none" stroke="#FFFFFF" stroke-width="1.5" opacity="0.9"/>
  </g>
</svg>
